<svg width="80" height="86" viewBox="0 0 80 86" fill="none" xmlns="http://www.w3.org/2000/svg">
<g clip-path="url(#clip0_181_119)">
<path d="M2.76997 85.1399C0.749974 84.4699 -0.0200255 83.0499 0.00997449 80.9499C0.0799745 74.5199 -0.110026 68.0899 0.119974 61.6699C0.299975 56.5299 3.02997 52.8699 7.81997 50.9199C12.92 48.8499 18.07 46.8999 23.2 44.8999C23.48 44.7899 23.76 44.6699 24.06 44.5399C24.06 43.5699 24.09 42.6299 24.04 41.6899C24.03 41.4399 23.83 41.1299 23.62 40.9599C21.09 38.8999 19.54 36.2499 18.97 33.0499C18.88 32.5599 18.71 32.3699 18.22 32.2799C13.63 31.5199 11.71 26.5599 14.56 22.8999C14.63 22.8199 14.69 22.7299 14.79 22.5899C14.65 22.4799 14.53 22.3799 14.4 22.2899C10.63 19.7799 8.83997 15.4299 9.78997 11.0999C10.74 6.78994 14.27 3.34994 18.78 2.93994C22.14 2.62994 25.28 1.68994 28.45 0.709935C32.92 -0.670065 37.03 -0.100065 40.62 3.11994C41.01 3.46993 41.57 3.69994 42.09 3.81994C45.72 4.67993 48 7.47994 48.03 11.2199C48.05 14.4099 48.04 17.5899 48.03 20.7799C48.03 21.2599 48.14 21.5799 48.54 21.8999C50.52 23.4999 51.28 25.5899 50.62 28.0399C49.96 30.4499 48.29 31.8799 45.81 32.2799C45.35 32.3599 45.15 32.5199 45.07 32.9799C44.5 36.2899 42.87 38.9699 40.28 41.0899C40.06 41.2699 39.89 41.6199 39.88 41.9099C39.84 42.7899 39.6 43.8699 40 44.4999C40.37 45.0899 41.48 45.2299 42.27 45.5499C43.37 45.9899 44.48 46.3999 45.7 46.8699C45.7 45.1399 45.7 43.5199 45.7 41.8899C45.7 41.2799 45.7 40.6699 45.7 40.0599C45.72 37.4699 47.37 35.8199 49.98 35.7999C51.5 35.7899 53.02 35.7999 54.66 35.7999C54.66 35.4199 54.65 35.0999 54.66 34.7799C54.72 32.6499 56.33 30.9699 58.45 30.9299C61.28 30.8799 64.1 30.8799 66.93 30.9299C69.05 30.9699 70.63 32.5999 70.76 34.7699C70.78 35.0699 70.76 35.3799 70.76 35.7499C71.04 35.7699 71.28 35.7999 71.52 35.7999C72.79 35.8099 74.07 35.7999 75.34 35.7999C78.05 35.8199 79.67 37.4299 79.69 40.1599C79.71 42.5399 79.69 44.9299 79.69 47.3099C79.69 49.2499 79.7 51.1899 79.69 53.1299C79.67 55.8199 78.07 57.4099 75.38 57.4199C73.89 57.4299 72.39 57.4199 70.8 57.4199C70.86 60.2599 69.68 62.0799 66.63 62.4099C66.63 62.6899 66.63 62.9899 66.63 63.2799C66.63 69.5099 66.6 75.7499 66.65 81.9799C66.66 83.4899 66.19 84.5399 64.8 85.1499C54.71 85.1499 44.62 85.1499 34.53 85.1499C33.92 84.7699 33.49 84.2699 33.75 83.5099C33.99 82.7999 34.59 82.6499 35.29 82.6499C40.33 82.6599 45.38 82.6599 50.42 82.6599C50.71 82.6599 51.01 82.6599 51.35 82.6599C51.35 82.2099 51.35 81.8899 51.35 81.5599C51.35 75.0999 51.35 68.6499 51.35 62.1899C51.35 61.1699 51.85 60.5699 52.64 60.5999C53.4 60.6199 53.84 61.1799 53.84 62.1799C53.85 64.7299 53.84 67.2799 53.84 69.8299C53.84 70.1199 53.84 70.4099 53.84 70.7399C55.52 70.7399 57.08 70.7399 58.69 70.7399C58.69 67.9399 58.69 65.1899 58.69 62.3899C57.4 62.3099 56.2 61.9499 55.56 60.8699C54.97 59.8699 54.72 58.6699 54.27 57.4299C53.04 57.4299 51.57 57.4299 50.11 57.4299C47.27 57.4199 45.68 55.8399 45.68 53.0099C45.68 52.1699 45.68 51.3299 45.68 50.2899C43.86 52.1099 42.23 53.7599 40.58 55.3999C39.08 56.8999 37.94 56.9199 36.35 55.4899C36.3 55.4399 36.21 55.4399 36.05 55.3799C36.05 57.2299 36.07 59.0199 36.04 60.8099C36.02 62.4199 34.92 63.5099 33.32 63.5499C32.43 63.5699 31.55 63.5599 30.66 63.5499C28.95 63.5299 27.85 62.4599 27.82 60.7599C27.8 59.1799 27.82 57.5999 27.81 56.0199C27.81 55.8199 27.77 55.6199 27.74 55.3699C25.72 56.9899 24.84 56.9399 23.06 55.1599C21.43 53.5299 19.79 51.9199 18.19 50.2699C17.8 49.8599 17.49 49.8199 16.98 50.0199C14.21 51.1299 11.39 52.1399 8.63997 53.2999C4.93997 54.8599 2.83997 57.7099 2.57997 61.6999C2.38997 64.5699 2.51997 67.4599 2.50997 70.3399C2.50997 70.4699 2.56997 70.5999 2.59997 70.7299C5.08997 70.7299 7.53997 70.7299 10.04 70.7299C10.04 69.4399 10.04 68.2299 10.04 67.0099C10.04 65.2899 10.03 63.5699 10.05 61.8599C10.06 61.1299 10.58 60.6099 11.24 60.6299C11.94 60.6499 12.37 61.0399 12.5 61.7299C12.55 61.9999 12.53 62.2799 12.53 62.5599C12.53 68.9299 12.53 75.2999 12.53 81.6799C12.53 81.9999 12.53 82.3199 12.53 82.6899C12.95 82.6899 13.25 82.6899 13.55 82.6899C18.57 82.6899 23.58 82.6899 28.6 82.6899C29.3 82.6899 29.94 82.7499 30.24 83.5199C30.54 84.3099 30.05 84.7599 29.53 85.1899C20.62 85.1399 11.7 85.1399 2.76997 85.1399ZM45.29 20.6199C45.35 20.6099 45.42 20.5999 45.48 20.5799C45.5 20.3699 45.53 20.1599 45.53 19.9499C45.53 17.0399 45.55 14.1299 45.53 11.2199C45.51 8.65993 44.06 6.84994 41.58 6.27994C40.47 6.02994 39.51 5.53994 38.68 4.75994C37.44 3.58994 35.95 2.89994 34.27 2.60994C32.17 2.24994 30.2 2.71993 28.24 3.36994C25.45 4.28994 22.67 5.19993 19.69 5.30994C15.86 5.43994 12.55 8.53994 12.1 12.3299C11.63 16.2999 14.03 20.0099 17.79 21.1099C20 21.7599 22.18 21.4199 24.35 20.8499C28.31 19.8099 31.96 17.9999 35.6 16.1799C36.31 15.8299 37.08 15.5199 37.86 15.4299C39.93 15.1799 43.89 17.4599 44.8 19.3299C45 19.7499 45.13 20.1899 45.29 20.6199ZM21.38 23.9699C21.38 26.8099 21.15 29.5699 21.43 32.2699C21.98 37.6299 26.81 41.5099 32.44 41.3799C37.78 41.2599 42.36 37.0299 42.7 31.7099C42.88 28.8999 42.77 26.0599 42.79 23.2399C42.82 19.8899 42.81 20.2599 40.16 18.6199C38.88 17.8299 37.8 17.8199 36.46 18.5199C31.66 21.0099 26.8 23.3499 21.38 23.9699ZM72.21 38.3499C65.8 38.3499 59.51 38.3499 53.22 38.3499C53.22 43.8899 53.22 49.3699 53.22 54.8699C59.55 54.8699 65.83 54.8699 72.21 54.8699C72.21 54.5399 72.21 54.2399 72.21 53.9399C72.21 52.5299 72.2 51.1099 72.22 49.6999C72.23 48.8099 72.76 48.2399 73.49 48.2699C74.19 48.2899 74.68 48.8299 74.7 49.6899C74.72 51.1299 74.71 52.5699 74.71 54.0099C74.71 54.2999 74.74 54.5899 74.75 54.8599C76.72 54.9999 77.19 54.5599 77.19 52.6899C77.19 48.5399 77.15 44.3799 77.21 40.2299C77.23 38.7699 76.22 37.9399 74.7 38.4299C74.7 38.9299 74.7 39.4499 74.7 39.9799C74.7 41.2299 74.72 42.4699 74.67 43.7199C74.64 44.4799 74.14 44.9199 73.45 44.9199C72.75 44.9199 72.29 44.4899 72.22 43.7299C72.18 43.3199 72.2 42.8999 72.2 42.4799C72.21 41.0999 72.21 39.7299 72.21 38.3499ZM2.54997 73.3099C2.54997 76.1799 2.52997 78.9899 2.58997 81.7999C2.59997 82.0799 3.08997 82.5799 3.35997 82.5799C5.55997 82.6399 7.76997 82.6199 10.01 82.6199C10.01 79.4799 10.01 76.4199 10.01 73.3099C7.51997 73.3099 5.06997 73.3099 2.54997 73.3099ZM64.08 82.6099C64.08 75.8199 64.08 69.1099 64.08 62.3899C63.12 62.3899 62.22 62.3899 61.31 62.3899C61.31 69.1599 61.31 75.8699 61.31 82.6099C62.26 82.6099 63.14 82.6099 64.08 82.6099ZM26.51 42.7299C26.51 43.5999 26.48 44.3499 26.52 45.0899C26.54 45.3999 26.6 45.7899 26.8 45.9999C27.68 46.9499 28.74 47.7699 29.51 48.7999C30.4 49.9899 31.5 50.1999 32.82 50.0199C33.02 49.9899 33.26 49.9399 33.39 49.7999C34.66 48.5299 35.91 47.2399 37.16 45.9499C37.29 45.8199 37.46 45.6399 37.45 45.4899C37.41 44.6399 37.33 43.7999 37.25 42.8599C33.73 44.2699 30.19 44.1699 26.51 42.7299ZM53.9 73.3099C53.9 76.4399 53.9 79.5099 53.9 82.5999C55.52 82.5999 57.09 82.5999 58.69 82.5999C58.69 79.4899 58.69 76.4099 58.69 73.3099C57.06 73.3099 55.5 73.3099 53.9 73.3099ZM50.63 54.8199C50.63 49.3399 50.63 43.8499 50.63 38.3699C48.87 38.0899 48.18 38.6499 48.18 40.3299C48.18 44.4799 48.18 48.6299 48.18 52.7799C48.18 54.5799 48.77 55.0799 50.63 54.8199ZM28.3 51.0499C27.09 49.8499 25.87 48.6099 24.63 47.3999C24.51 47.2899 24.26 47.1799 24.13 47.2299C22.85 47.6999 21.58 48.2099 20.46 48.6499C22.19 50.3799 23.89 52.0899 25.58 53.7899C26.43 52.9399 27.34 52.0199 28.3 51.0499ZM43.5 48.7099C42.31 48.2499 41.11 47.7599 39.9 47.3199C39.73 47.2599 39.43 47.2799 39.31 47.3899C38.06 48.6099 36.83 49.8599 35.65 51.0399C36.63 52.0299 37.53 52.9499 38.39 53.8099C40.05 52.1399 41.75 50.4499 43.5 48.7099ZM30.4 52.5599C30.4 55.4199 30.4 58.1999 30.4 60.9599C31.49 60.9599 32.49 60.9599 33.49 60.9599C33.49 58.1199 33.49 55.3499 33.49 52.5599C32.43 52.5599 31.45 52.5599 30.4 52.5599ZM57.22 57.4499C56.96 59.2199 57.48 59.8499 59.15 59.8499C61.56 59.8499 63.96 59.8599 66.37 59.8499C67.9 59.8499 68.54 58.9699 68.13 57.4499C64.49 57.4499 60.85 57.4499 57.22 57.4499ZM68.18 35.7599C68.41 34.0299 67.88 33.3899 66.26 33.3899C63.85 33.3899 61.44 33.3799 59.03 33.3899C57.44 33.3899 56.87 34.1599 57.26 35.7599C60.88 35.7599 64.51 35.7599 68.18 35.7599ZM45.35 23.2899C45.35 25.4499 45.35 27.6099 45.35 29.7699C47.13 29.6199 48.41 28.1199 48.33 26.3499C48.26 24.6799 46.92 23.2999 45.35 23.2899ZM18.71 23.8299C18.22 23.8299 17.65 23.6699 17.25 23.8599C16.07 24.4199 15.46 26.0099 15.79 27.3399C16.13 28.7099 17.33 29.7099 18.71 29.7599C18.71 27.8599 18.71 25.9599 18.71 23.8299Z" fill="#445EF2"/>
<path d="M58.66 46.62C58.66 45.62 58.65 44.63 58.66 43.63C58.69 41.72 60.37 40.73 62 41.68C63.69 42.67 65.37 43.69 67.02 44.75C68.52 45.71 68.49 47.53 66.97 48.49C65.33 49.52 63.68 50.53 62.02 51.51C60.38 52.48 58.69 51.51 58.65 49.6C58.64 48.61 58.66 47.61 58.66 46.62ZM61.21 44.11C61.21 45.83 61.21 47.41 61.21 49.1C62.59 48.26 63.88 47.47 65.28 46.61C63.9 45.75 62.61 44.97 61.21 44.11Z" fill="#445EF2"/>
</g>
<defs>
<clipPath id="clip0_181_119">
<rect width="79.69" height="85.14" fill="white"/>
</clipPath>
</defs>
</svg>
