<svg width="86" height="86" viewBox="0 0 86 86" fill="none" xmlns="http://www.w3.org/2000/svg">
<g clip-path="url(#clip0_181_81)">
<path d="M72.67 85.14C72 84.67 71.81 84.03 71.82 83.21C71.86 80 71.83 76.79 71.84 73.58C71.84 72.28 72.28 71.84 73.58 71.84C76.79 71.84 80 71.86 83.21 71.82C84.02 71.81 84.67 71.99 85.14 72.67C85.14 76.83 85.14 80.98 85.14 85.14C80.99 85.14 76.83 85.14 72.67 85.14ZM74.56 74.54C74.56 77.22 74.56 79.83 74.56 82.42C77.23 82.42 79.84 82.42 82.44 82.42C82.44 79.76 82.44 77.17 82.44 74.54C79.8 74.54 77.21 74.54 74.56 74.54Z" fill="#445EF2"/>
<path d="M85.14 12.4899C84.67 13.1599 84.03 13.3499 83.21 13.3399C80 13.2999 76.79 13.3299 73.58 13.3199C72.28 13.3199 71.84 12.8799 71.84 11.5699C71.84 8.2999 71.84 5.0399 71.84 1.7699C71.84 0.469901 72.28 0.019901 73.58 0.019901C76.79 0.019901 80 0.039901 83.21 -9.90195e-05C84.02 -0.010099 84.67 0.169901 85.14 0.849901C85.14 4.7299 85.14 8.6099 85.14 12.4899ZM74.56 2.7099C74.56 5.3899 74.56 7.9999 74.56 10.5899C77.23 10.5899 79.84 10.5899 82.44 10.5899C82.44 7.9299 82.44 5.3399 82.44 2.7099C79.8 2.7099 77.21 2.7099 74.56 2.7099Z" fill="#445EF2"/>
<path d="M0.850023 85.1399C0.170023 84.6699 -0.00997695 84.0299 2.30508e-05 83.2199C0.0400231 80.0099 0.0100231 76.7999 0.020023 73.5899C0.020023 72.2899 0.460023 71.8499 1.77002 71.8499C5.04002 71.8499 8.30002 71.8499 11.57 71.8499C12.87 71.8499 13.32 72.2899 13.32 73.5899C13.32 76.7999 13.3 80.0099 13.34 83.2199C13.35 84.0299 13.17 84.6799 12.49 85.1499C8.61002 85.1399 4.73002 85.1399 0.850023 85.1399ZM2.73002 74.5399C2.73002 77.2099 2.73002 79.8199 2.73002 82.4199C5.40002 82.4199 8.01002 82.4199 10.61 82.4199C10.61 79.7599 10.61 77.1699 10.61 74.5399C7.98002 74.5399 5.39002 74.5399 2.73002 74.5399Z" fill="#445EF2"/>
<path d="M29.36 19.7598C30.63 19.7298 31.63 20.3398 32.53 21.2398C37.57 26.2998 42.63 31.3498 47.69 36.4098C52.39 41.1098 57.1 45.7998 61.78 50.5298C62.22 50.9698 62.57 51.6098 62.71 52.2098C63.61 55.8898 64.45 59.5898 65.31 63.2798C65.71 64.9998 65 65.7098 63.27 65.3098C59.5 64.4398 55.72 63.5798 51.96 62.6798C51.53 62.5798 51.07 62.3298 50.76 62.0198C40.83 52.1199 30.92 42.2099 21.02 32.2898C19.25 30.5098 19.26 28.1698 21.02 26.3798C22.79 24.5898 24.58 22.8098 26.36 21.0298C27.17 20.1998 28.14 19.7398 29.36 19.7598ZM59.34 51.9998C51.15 43.8098 43.04 35.7098 34.99 27.6498C34.15 28.4898 33.23 29.3998 32.18 30.4498C32.39 30.6198 32.67 30.7898 32.9 31.0198C39.7 37.8098 46.5 44.6098 53.3 51.4098C53.5 51.6098 53.71 51.7898 53.87 52.0098C54.31 52.5998 54.29 53.1998 53.8 53.7498C53.33 54.2698 52.6 54.3098 52 53.8498C51.78 53.6798 51.59 53.4698 51.4 53.2798C44.6 46.4798 37.8 39.6898 31.01 32.8798C30.78 32.6498 30.66 32.3098 30.54 32.1198C29.41 33.2598 28.5 34.1698 27.8 34.8798C35.85 42.9298 43.95 51.0398 52.01 59.1098C52.03 58.6298 52.04 57.9998 52.1 57.3698C52.19 56.3198 52.65 55.8998 53.71 55.8898C54.42 55.8798 55.13 55.8898 55.88 55.8898C55.88 55.0898 55.87 54.3998 55.88 53.7098C55.89 52.6598 56.32 52.1998 57.38 52.1098C58.01 52.0498 58.64 52.0298 59.34 51.9998ZM33.02 25.4898C32.13 24.5998 31.26 23.7098 30.36 22.8498C29.7 22.2098 28.99 22.1798 28.37 22.7898C26.49 24.6298 24.63 26.4898 22.79 28.3698C22.19 28.9798 22.19 29.6798 22.77 30.2898C23.66 31.2298 24.6 32.1298 25.47 33.0098C28 30.4898 30.48 28.0198 33.02 25.4898ZM58.54 54.7698C58.54 55.5398 58.55 56.2498 58.54 56.9698C58.52 58.0499 58.04 58.5198 56.96 58.5398C56.22 58.5498 55.49 58.5398 54.74 58.5398C54.69 59.1298 54.61 59.6298 54.62 60.1198C54.62 60.2998 54.81 60.5898 54.97 60.6398C55.6 60.8298 56.25 60.9398 56.91 61.0798C57.61 58.9799 58.98 57.6098 61.04 56.9298C61.01 56.7098 61 56.5198 60.96 56.3398C60.56 54.4898 60.56 54.4898 58.54 54.7698ZM61.46 59.4098C60.73 60.1498 60.15 60.7398 59.41 61.4798C60.53 61.8098 61.38 62.0598 62.36 62.3498C62.05 61.3298 61.79 60.4898 61.46 59.4098Z" fill="#445EF2"/>
<path d="M32.2901 49.0699C31.5401 49.7599 30.9201 50.3399 30.2301 50.9799C29.7201 50.4099 29.1701 49.7899 28.6801 49.2399C27.6901 50.2399 26.7801 51.1499 25.8001 52.1399C26.9201 53.2099 28.1701 54.3999 29.4301 55.5899C28.6801 56.2999 28.0701 56.8799 27.4001 57.5199C26.2701 56.3499 25.0801 55.1199 23.9601 53.9499C22.6601 55.2599 21.4401 56.4799 20.2901 57.6499C22.6501 60.0099 25.1301 62.4899 27.8101 65.1699C27.9001 65.0199 28.0001 64.7099 28.2101 64.4999C31.6301 61.0599 35.0601 57.6299 38.4901 54.2099C38.7101 53.9899 38.9101 53.7499 39.1601 53.5899C39.7401 53.2099 40.3301 53.2299 40.8301 53.7199C41.3301 54.1999 41.3901 54.7899 41.0201 55.3799C40.8701 55.6099 40.6601 55.7999 40.4701 55.9999C36.6101 59.8599 32.7501 63.7199 28.8901 67.5799C27.8001 68.6699 27.2901 68.6699 26.1901 67.5599C23.3101 64.6799 20.4301 61.7999 17.5501 58.9199C16.5301 57.8999 16.5401 57.3699 17.5701 56.3399C21.4701 52.4399 25.3701 48.5399 29.2701 44.6399C29.4301 44.4799 29.5801 44.3199 29.7601 44.1899C30.3401 43.7899 30.9101 43.8299 31.4301 44.2999C31.9101 44.7299 32.0001 45.5099 31.5801 46.0399C31.2401 46.4699 30.8301 46.8499 30.3701 47.3299C31.0001 47.8999 31.6301 48.4699 32.2901 49.0699Z" fill="#445EF2"/>
<path d="M65.18 27.7399C62.54 25.0999 60.05 22.6199 57.6 20.1799C56.44 21.3399 55.22 22.5599 54.01 23.7699C55.19 24.9199 56.43 26.1299 57.7 27.3799C56.94 28.1099 56.33 28.6899 55.64 29.3599C54.46 28.1399 53.26 26.8899 52.08 25.6599C51.08 26.6599 50.18 27.5599 49.23 28.5199C49.84 29.0599 50.48 29.6199 51.15 30.2099C50.37 30.9499 49.76 31.5299 49.04 32.2099C48.54 31.6099 47.99 30.9599 47.25 30.0899C46.82 30.6499 46.57 31.0699 46.24 31.3899C45.64 31.9799 44.84 31.9799 44.31 31.4599C43.76 30.9099 43.76 30.1699 44.36 29.5399C45.38 28.4799 46.43 27.4599 47.47 26.4199C50.43 23.4599 53.38 20.4999 56.34 17.5499C57.33 16.5599 57.89 16.5499 58.86 17.5199C61.8 20.4499 64.74 23.3899 67.67 26.3299C68.58 27.2499 68.59 27.8399 67.7 28.7399C63.71 32.7399 59.71 36.7299 55.71 40.7299C55.55 40.8899 55.4 41.0499 55.21 41.1599C54.64 41.4799 54.08 41.4399 53.61 40.9699C53.12 40.4799 53.06 39.8899 53.44 39.3099C53.59 39.0799 53.81 38.8999 54 38.6999C57.49 35.2099 60.97 31.7199 64.46 28.2399C64.7 28.0099 64.98 27.8699 65.18 27.7399Z" fill="#445EF2"/>
<path d="M6.61001 13.32C4.98001 13.32 3.34001 13.32 1.71001 13.32C0.500012 13.32 0.0300122 12.86 0.0200122 11.68C0.0100122 8.32995 0.0100122 4.96995 0.0200122 1.61995C0.0200122 0.489951 0.510012 0.0199512 1.66001 0.0199512C5.01001 0.00995117 8.37001 0.00995117 11.72 0.0199512C12.85 0.0199512 13.32 0.509951 13.32 1.65995C13.33 5.00995 13.33 8.36995 13.32 11.72C13.32 12.85 12.83 13.32 11.68 13.32C9.99001 13.32 8.30001 13.32 6.61001 13.32ZM2.73001 2.68995C2.73001 5.37995 2.73001 7.98995 2.73001 10.6C5.39001 10.6 8.01001 10.6 10.59 10.6C10.59 7.92995 10.59 5.31995 10.59 2.68995C7.95001 2.68995 5.38001 2.68995 2.73001 2.68995Z" fill="#445EF2"/>
<path d="M61.1601 5.37988C61.1601 6.22988 61.1601 7.04988 61.1601 7.92988C59.4401 7.92988 57.7101 7.92988 55.9301 7.92988C55.9301 7.09988 55.9301 6.25988 55.9301 5.37988C57.6701 5.37988 59.4001 5.37988 61.1601 5.37988Z" fill="#445EF2"/>
<path d="M63.9 7.9499C63.9 7.0899 63.9 6.2799 63.9 5.3999C65.62 5.3999 67.35 5.3999 69.13 5.3999C69.13 6.2299 69.13 7.0699 69.13 7.9499C67.39 7.9499 65.66 7.9499 63.9 7.9499Z" fill="#445EF2"/>
<path d="M5.39001 16.01C6.27001 16.01 7.09001 16.01 7.95001 16.01C7.95001 17.75 7.95001 19.46 7.95001 21.23C7.13001 21.23 6.29001 21.23 5.39001 21.23C5.39001 19.53 5.39001 17.81 5.39001 16.01Z" fill="#445EF2"/>
<path d="M77.22 16.01C78.1 16.01 78.92 16.01 79.78 16.01C79.78 17.75 79.78 19.46 79.78 21.23C78.96 21.23 78.12 21.23 77.22 21.23C77.22 19.53 77.22 17.81 77.22 16.01Z" fill="#445EF2"/>
<path d="M5.40002 23.99C6.27002 23.99 7.09002 23.99 7.95002 23.99C7.95002 25.75 7.95002 27.47 7.95002 29.24C7.10002 29.24 6.28002 29.24 5.40002 29.24C5.40002 27.52 5.40002 25.79 5.40002 23.99Z" fill="#445EF2"/>
<path d="M79.78 24.01C79.78 25.75 79.78 27.45 79.78 29.22C78.95 29.22 78.11 29.22 77.21 29.22C77.21 27.51 77.21 25.78 77.21 24.01C78.05 24.01 78.87 24.01 79.78 24.01Z" fill="#445EF2"/>
<path d="M7.98002 31.99C7.98002 33.75 7.98002 35.43 7.98002 37.19C7.14002 37.19 6.30002 37.19 5.40002 37.19C5.40002 35.49 5.40002 33.77 5.40002 31.99C6.23002 31.99 7.07002 31.99 7.98002 31.99Z" fill="#445EF2"/>
<path d="M21.25 7.9599C19.51 7.9599 17.81 7.9599 16.04 7.9599C16.04 7.1299 16.04 6.2899 16.04 5.3999C17.75 5.3999 19.47 5.3999 21.25 5.3999C21.25 6.2399 21.25 7.0799 21.25 7.9599Z" fill="#445EF2"/>
<path d="M7.94 45.2C7.06 45.2 6.24 45.2 5.38 45.2C5.38 43.46 5.38 41.76 5.38 39.98C6.2 39.98 7.04 39.98 7.94 39.98C7.94 41.69 7.94 43.41 7.94 45.2Z" fill="#445EF2"/>
<path d="M79.76 45.2C78.88 45.2 78.06 45.2 77.2 45.2C77.2 43.46 77.2 41.76 77.2 39.98C78.02 39.98 78.86 39.98 79.76 39.98C79.76 41.69 79.76 43.41 79.76 45.2Z" fill="#445EF2"/>
<path d="M5.38 47.9399C6.24 47.9399 7.06 47.9399 7.94 47.9399C7.94 49.6699 7.94 51.3899 7.94 53.1699C7.1 53.1699 6.26 53.1699 5.38 53.1699C5.38 51.4399 5.38 49.7399 5.38 47.9399Z" fill="#445EF2"/>
<path d="M77.2 53.18C77.2 51.43 77.2 49.72 77.2 47.96C78.05 47.96 78.89 47.96 79.78 47.96C79.78 49.69 79.78 51.41 79.78 53.18C78.93 53.18 78.11 53.18 77.2 53.18Z" fill="#445EF2"/>
<path d="M79.81 32.01C79.81 33.76 79.81 35.45 79.81 37.2C78.96 37.2 78.12 37.2 77.22 37.2C77.22 35.49 77.22 33.77 77.22 32.01C78.08 32.01 78.94 32.01 79.81 32.01Z" fill="#445EF2"/>
<path d="M7.94 61.1599C7.06 61.1599 6.24 61.1599 5.38 61.1599C5.38 59.4199 5.38 57.7099 5.38 55.9399C6.21 55.9399 7.05 55.9399 7.94 55.9399C7.94 57.6499 7.94 59.3799 7.94 61.1599Z" fill="#445EF2"/>
<path d="M79.76 61.1699C78.89 61.1699 78.07 61.1699 77.2 61.1699C77.2 59.4299 77.2 57.73 77.2 55.95C78.02 55.95 78.85 55.95 79.76 55.95C79.76 57.65 79.76 59.3699 79.76 61.1699Z" fill="#445EF2"/>
<path d="M7.96 63.8999C7.96 65.6599 7.96 67.3699 7.96 69.1299C7.1 69.1299 6.26 69.1299 5.38 69.1299C5.38 67.3899 5.38 65.6699 5.38 63.8999C6.24 63.8999 7.05 63.8999 7.96 63.8999Z" fill="#445EF2"/>
<path d="M79.77 69.1399C78.89 69.1399 78.07 69.1399 77.21 69.1399C77.21 67.3999 77.21 65.6899 77.21 63.9199C78.03 63.9199 78.87 63.9199 79.77 63.9199C79.77 65.6299 79.77 67.3499 79.77 69.1399Z" fill="#445EF2"/>
<path d="M29.24 5.38989C29.24 6.26989 29.24 7.08989 29.24 7.94989C27.5 7.94989 25.79 7.94989 24.02 7.94989C24.02 7.11989 24.02 6.28989 24.02 5.38989C25.73 5.38989 27.45 5.38989 29.24 5.38989Z" fill="#445EF2"/>
<path d="M37.2 7.9599C35.43 7.9599 33.73 7.9599 31.98 7.9599C31.98 7.1099 31.98 6.2899 31.98 5.3999C33.69 5.3999 35.42 5.3999 37.2 5.3999C37.2 6.2199 37.2 7.0599 37.2 7.9599Z" fill="#445EF2"/>
<path d="M45.18 7.96988C43.43 7.96988 41.73 7.96988 39.97 7.96988C39.97 7.09988 39.97 6.25988 39.97 5.37988C41.7 5.37988 43.41 5.37988 45.18 5.37988C45.18 6.19988 45.18 7.03988 45.18 7.96988Z" fill="#445EF2"/>
<path d="M53.18 5.38989C53.18 6.26989 53.18 7.08989 53.18 7.94989C51.44 7.94989 49.73 7.94989 47.96 7.94989C47.96 7.12989 47.96 6.28989 47.96 5.38989C49.67 5.38989 51.39 5.38989 53.18 5.38989Z" fill="#445EF2"/>
<path d="M15.9901 79.77C15.9901 78.89 15.9901 78.09 15.9901 77.23C17.7301 77.23 19.4501 77.23 21.2401 77.23C21.2401 78.05 21.2401 78.88 21.2401 79.77C19.5101 79.77 17.7901 79.77 15.9901 79.77Z" fill="#445EF2"/>
<path d="M23.9901 79.76C23.9901 78.91 23.9901 78.09 23.9901 77.22C25.7401 77.22 27.4701 77.22 29.2301 77.22C29.2301 78.06 29.2301 78.88 29.2301 79.76C27.5301 79.76 25.8001 79.76 23.9901 79.76Z" fill="#445EF2"/>
<path d="M31.98 79.78C31.98 78.92 31.98 78.11 31.98 77.23C33.7 77.23 35.43 77.23 37.21 77.23C37.21 78.06 37.21 78.9 37.21 79.78C35.47 79.78 33.74 79.78 31.98 79.78Z" fill="#445EF2"/>
<path d="M39.98 77.2C41.75 77.2 43.45 77.2 45.2 77.2C45.2 78.06 45.2 78.87 45.2 79.76C43.49 79.76 41.76 79.76 39.98 79.76C39.98 78.94 39.98 78.1 39.98 77.2Z" fill="#445EF2"/>
<path d="M53.16 79.79C51.4 79.79 49.7 79.79 47.95 79.79C47.95 78.94 47.95 78.12 47.95 77.23C49.65 77.23 51.38 77.23 53.16 77.23C53.16 78.04 53.16 78.88 53.16 79.79Z" fill="#445EF2"/>
<path d="M61.17 77.23C61.17 78.09 61.17 78.91 61.17 79.78C59.41 79.78 57.69 79.78 55.92 79.78C55.92 78.93 55.92 78.11 55.92 77.23C57.64 77.23 59.36 77.23 61.17 77.23Z" fill="#445EF2"/>
<path d="M69.1501 77.22C69.1501 78.09 69.1501 78.91 69.1501 79.78C67.4101 79.78 65.7101 79.78 63.9301 79.78C63.9301 78.96 63.9301 78.12 63.9301 77.22C65.6301 77.22 67.3501 77.22 69.1501 77.22Z" fill="#445EF2"/>
</g>
<defs>
<clipPath id="clip0_181_81">
<rect width="85.14" height="85.14" fill="white"/>
</clipPath>
</defs>
</svg>
