<svg width="93" height="86" viewBox="0 0 93 86" fill="none" xmlns="http://www.w3.org/2000/svg">
<g clip-path="url(#clip0_181_29)">
<path d="M49.1 49.6099C50.82 52.5799 52.54 55.5699 54.26 58.5499C54.89 59.6299 55.27 60.7499 54.96 62.0199C54.44 64.1899 52.75 65.5699 50.53 65.5499C47.39 65.5299 44.24 65.3699 41.1 65.4299C36.48 65.5099 31.92 66.0499 27.49 67.4299C27.37 67.4699 27.26 67.5099 27.02 67.5999C27.19 67.9199 27.34 68.2099 27.5 68.4899C29.86 72.5799 32.22 76.6699 34.58 80.7699C35.41 82.2099 35.28 82.8999 33.81 83.6199C32.55 84.2399 31.21 84.9499 29.85 85.0999C27.04 85.4099 24.83 84.1399 23.39 81.6999C21.77 78.9799 20.21 76.2099 18.63 73.4699C18.44 73.1499 18.25 72.8299 18.01 72.4299C17.51 72.7099 17.04 72.9799 16.55 73.2399C12.73 75.2099 8.92 75.1699 5.27 72.9299C1.64 70.6999 -0.150001 67.3099 0.0199987 63.0499C0.169999 59.0399 2.06 55.9299 5.51 53.8499C8.09 52.2899 10.81 50.9399 13.31 49.2699C14.81 48.2699 16.13 46.9299 17.34 45.5799C20.62 41.9299 23.14 37.7399 25.61 33.5199C26.66 31.7199 27.69 29.9099 28.75 28.1199C30.71 24.8399 34.74 24.8399 36.68 28.1299C38.33 30.9399 39.95 33.7799 41.58 36.6099C41.79 36.9799 41.93 37.2399 42.49 37.1099C46.01 36.3099 49.11 37.5999 50.73 40.4799C52.37 43.3999 51.84 46.7499 49.31 49.3599C49.24 49.4099 49.19 49.4899 49.1 49.6099ZM17.06 50.2599C17.09 50.3799 17.1 50.4499 17.13 50.4999C19.8 55.1299 22.48 59.7599 25.13 64.3999C25.44 64.9399 25.76 64.8199 26.21 64.6799C30.21 63.4199 34.32 62.7799 38.5 62.5599C40.25 62.4699 42 62.4099 43.86 62.3199C38.6 53.2199 33.41 44.2199 28.14 35.1099C24.87 40.6499 21.54 45.8999 17.06 50.2599ZM14.55 52.0499C11.87 53.6099 9.28 55.0399 6.77 56.5899C3.15 58.8399 1.94 63.4699 3.9 67.2299C5.83 70.9299 10.37 72.7099 14.18 70.9599C17.1 69.6199 19.84 67.8599 22.73 66.2399C19.98 61.4699 17.29 56.7999 14.55 52.0499ZM49.28 62.5599C49.75 62.5599 50.22 62.5999 50.68 62.5499C51.74 62.4499 52.3 61.4999 51.9 60.5299C51.78 60.2499 51.61 59.9799 51.46 59.7099C46.58 51.2599 41.7 42.8099 36.82 34.3599C35.9 32.7699 35.01 31.1699 34.06 29.5999C33.31 28.3499 32.11 28.3699 31.34 29.6199C30.98 30.1999 30.69 30.8299 30.29 31.3799C29.91 31.9099 29.97 32.3399 30.29 32.8899C35.69 42.1899 41.08 51.4899 46.41 60.8299C47.11 62.0399 47.81 62.8199 49.28 62.5599ZM20.61 70.8999C21.09 71.7299 21.51 72.4499 21.92 73.1799C23.29 75.5499 24.66 77.9099 26.02 80.2799C27.2 82.3499 30.18 82.7399 31.46 81.3599C29.06 77.2099 26.66 73.0499 24.24 68.8599C24.03 68.9599 23.89 69.0199 23.76 69.0899C22.74 69.6699 21.72 70.2599 20.61 70.8999ZM47.49 46.8299C48.93 45.2399 49.02 43.0499 47.78 41.4499C46.74 40.0999 44.83 39.4599 43.59 40.0799C44.88 42.3099 46.17 44.5399 47.49 46.8299Z" fill="#445EF2"/>
<path d="M67.16 24.43C66.73 24.43 66.42 24.44 66.11 24.43C63.47 24.33 61.64 22.52 61.5 19.88C61.47 19.38 61.49 18.88 61.49 18.39C61.49 13.97 61.48 9.56001 61.49 5.14001C61.49 1.82001 63.32 0.0100098 66.63 0.0100098C73.72 0.0100098 80.82 0.0100098 87.91 0.0100098C91.15 0.0100098 92.98 1.85001 92.98 5.11001C92.98 9.90001 92.98 14.69 92.98 19.48C92.98 22.53 91.08 24.43 88.03 24.44C84.05 24.45 80.06 24.46 76.08 24.43C75.47 24.43 75.04 24.61 74.63 25.05C73.1 26.69 71.53 28.29 69.99 29.91C69.46 30.46 68.89 30.85 68.1 30.53C67.31 30.21 67.14 29.56 67.15 28.78C67.18 27.38 67.16 25.99 67.16 24.43ZM70.16 25.04C71.15 24.14 72.16 23.3 73.06 22.37C73.69 21.71 74.35 21.42 75.27 21.43C79.5 21.47 83.73 21.45 87.97 21.44C89.47 21.44 90.01 20.89 90.01 19.41C90.01 14.59 90.02 9.77001 90.01 4.94001C90.01 3.61001 89.45 3.00001 88.18 3.00001C80.88 3.00001 73.6 3.00001 66.32 3.00001C65.11 3.00001 64.52 3.56001 64.52 4.77001C64.5 9.75001 64.5 14.73 64.52 19.7C64.52 20.84 65.12 21.38 66.28 21.43C67.03 21.46 67.77 21.42 68.52 21.44C69.58 21.47 70.11 21.99 70.16 23.06C70.19 23.74 70.16 24.42 70.16 25.04Z" fill="#445EF2"/>
<path d="M41.48 2.54998C43.2 1.17998 45.25 0.169976 47.62 0.0199764C54.01 -0.380024 58.36 5.58998 56.26 11.86C55.12 15.27 52.87 17.95 50.18 20.2C47.81 22.19 45.21 23.92 42.71 25.76C41.77 26.45 40.84 26.38 39.86 25.76C35.49 23.01 31.37 19.98 28.33 15.72C26.42 13.05 25.31 10.14 26.01 6.78998C27.09 1.62998 32.11 -1.23002 37.25 0.489976C38.67 0.969976 39.97 1.80998 41.48 2.54998ZM53.77 9.41998C53.79 4.64998 50.26 1.98998 46.25 3.38998C44.94 3.84998 43.76 4.74998 42.63 5.59998C41.55 6.40998 41.02 6.38998 39.93 5.58998C38.75 4.71998 37.5 3.78998 36.13 3.33998C32.52 2.13998 29.31 4.32998 28.86 8.08998C28.58 10.41 29.54 12.35 30.84 14.14C33.12 17.28 36.1 19.68 39.27 21.85C41.28 23.22 41.3 23.23 43.31 21.84C46.71 19.5 49.9 16.93 52.21 13.44C53.12 12.05 53.74 10.57 53.77 9.41998Z" fill="#445EF2"/>
<path d="M78.88 60.9199C71.02 60.9399 64.67 54.5999 64.69 46.7599C64.71 38.9499 71.02 32.6599 78.84 32.6599C86.65 32.6599 92.98 38.9799 92.99 46.7699C93 54.5799 86.69 60.9099 78.88 60.9199ZM67.71 46.7799C67.7 52.9499 72.68 57.9299 78.85 57.9299C84.97 57.9299 89.97 52.9599 90 46.8699C90.03 40.7199 85.03 35.6799 78.89 35.6699C72.71 35.6499 67.72 40.6099 67.71 46.7799Z" fill="#445EF2"/>
<path d="M48.06 32.79C46.78 32.82 46.01 32 46.23 31.07C46.67 29.2 47.17 27.34 47.71 25.49C47.94 24.69 48.75 24.32 49.49 24.52C50.23 24.72 50.75 25.45 50.56 26.25C50.1 28.12 49.63 29.99 49.03 31.82C48.89 32.27 48.28 32.58 48.06 32.79Z" fill="#445EF2"/>
<path d="M62.02 35.0799C61.85 35.2899 61.6 35.8199 61.18 36.0899C59.68 37.0299 58.14 37.8999 56.59 38.7699C55.75 39.2399 54.91 39.0199 54.47 38.2999C54.04 37.5799 54.25 36.6999 55.06 36.2199C56.63 35.2799 58.22 34.3399 59.83 33.4799C60.88 32.8999 62.01 33.6099 62.02 35.0799Z" fill="#445EF2"/>
<path d="M63.88 48.92C63.86 50.04 63.05 50.74 62.1 50.51C60.26 50.06 58.43 49.57 56.61 49.04C55.77 48.79 55.41 47.98 55.64 47.18C55.85 46.45 56.6 45.98 57.41 46.18C59.22 46.63 61.02 47.13 62.81 47.64C63.51 47.84 63.88 48.35 63.88 48.92Z" fill="#445EF2"/>
<path d="M77.08 13.7799C74.56 13.7799 72.04 13.7899 69.53 13.7699C69.16 13.7699 68.67 13.8199 68.45 13.6199C68.04 13.2299 67.59 12.6999 67.51 12.1799C67.42 11.4999 67.92 10.9599 68.66 10.8299C68.99 10.7699 69.34 10.7799 69.68 10.7799C74.62 10.7799 79.56 10.7799 84.51 10.7799C84.82 10.7799 85.13 10.7799 85.44 10.8099C86.24 10.8999 86.68 11.3999 86.74 12.1599C86.79 12.9699 86.37 13.5199 85.56 13.7099C85.26 13.7799 84.94 13.7699 84.63 13.7699C82.12 13.7799 79.6 13.7799 77.08 13.7799Z" fill="#445EF2"/>
<path d="M77.1 15.6401C79.8 15.6401 82.51 15.6301 85.21 15.6501C86.13 15.6601 86.72 16.2501 86.76 17.0601C86.79 17.8601 86.22 18.4901 85.33 18.6101C85.02 18.6501 84.71 18.6401 84.4 18.6401C80.2 18.6401 76.01 18.6401 71.81 18.6401C71 18.6401 70.19 18.6501 69.39 18.6401C68.17 18.6201 67.44 18.0301 67.46 17.0901C67.48 16.1701 68.16 15.6501 69.36 15.6401C71.94 15.6301 74.52 15.6301 77.1 15.6401C77.1 15.6301 77.1 15.6301 77.1 15.6401Z" fill="#445EF2"/>
<path d="M77.06 8.94001C74.54 8.94001 72.02 8.94001 69.51 8.93001C69.17 8.93001 68.82 8.91001 68.5 8.81001C67.78 8.59001 67.43 8.04001 67.48 7.32001C67.54 6.56001 67.97 5.97001 68.77 5.97001C74.33 5.94001 79.9 5.94001 85.46 5.97001C86.25 5.97001 86.69 6.57001 86.74 7.33001C86.79 8.05001 86.43 8.60001 85.72 8.81001C85.4 8.91001 85.05 8.92001 84.71 8.93001C82.16 8.94001 79.61 8.94001 77.06 8.94001Z" fill="#445EF2"/>
<path d="M73.97 46.8001C73.97 45.1501 73.95 43.5001 73.97 41.8501C73.99 40.2601 75.11 39.6001 76.48 40.3801C79.37 42.0301 82.25 43.6901 85.12 45.3701C86.46 46.1501 86.46 47.4301 85.12 48.2101C82.25 49.8901 79.37 51.5601 76.48 53.2001C75.11 53.9801 73.99 53.3201 73.97 51.7301C73.95 50.1001 73.97 48.4501 73.97 46.8001ZM81.6 46.8001C80.03 45.9001 78.57 45.0601 77.04 44.1701C77.04 45.9901 77.04 47.6401 77.04 49.4301C78.61 48.5301 80.05 47.6901 81.6 46.8001Z" fill="#445EF2"/>
</g>
<defs>
<clipPath id="clip0_181_29">
<rect width="93" height="85.14" fill="white"/>
</clipPath>
</defs>
</svg>
