<svg width="86" height="74" viewBox="0 0 86 74" fill="none" xmlns="http://www.w3.org/2000/svg">
<g clip-path="url(#clip0_189_336)">
<path d="M85.29 71.2101C84.64 72.9301 83.36 73.5901 81.57 73.4801C80.49 73.4201 79.41 73.4701 78.32 73.4701C76.01 73.4601 75.12 72.7201 74.67 70.4301C53.34 70.4301 32 70.4301 10.6 70.4301C10.57 70.6201 10.53 70.8301 10.49 71.0301C10.27 72.2901 9.30999 73.3201 8.03999 73.3901C6.18999 73.48 4.31999 73.4901 2.46999 73.3901C1.08999 73.3101 0.0199878 72.0901 0.00998779 70.6801C-0.0200122 64.8001 -0.0200122 58.9101 0.00998779 53.0201C0.0199878 51.4501 1.26999 50.2601 2.85999 50.2201C4.24999 50.1901 5.63999 50.2101 7.01999 50.2101C9.25999 50.2101 10.18 50.9801 10.61 53.2701C10.88 53.2801 11.18 53.3101 11.47 53.3101C17.74 53.3101 24.02 53.3101 30.29 53.3201C30.79 53.3201 31.12 53.1401 31.52 52.8301C32.05 52.4101 32.76 52.1501 33.43 52.0101C34.07 51.8801 34.75 51.9801 35.57 51.9801C35.57 51.1901 35.57 50.4601 35.57 49.7201C35.57 49.1101 35.56 48.5001 35.58 47.8901C35.62 46.5601 36.28 45.6601 37.51 45.1401C37.72 45.0501 38.02 44.8201 38.02 44.6401C38.06 42.8501 38.04 41.0501 38.04 39.1501C37.01 39.1501 36.07 39.1601 35.14 39.1501C32.54 39.1001 30.98 37.9201 30.33 35.4201C30.19 34.8901 29.88 34.9601 29.53 34.9501C27.23 34.9501 24.92 34.9501 22.62 34.9501C20.4 34.9501 19.3 33.8501 19.3 31.6301C19.3 24.6301 19.3 17.6401 19.3 10.6401C19.3 8.44005 20.43 7.31005 22.62 7.30005C25.81 7.29005 29 7.30005 32.2 7.30005C32.5 7.30005 32.8 7.30005 33.14 7.30005C33.18 7.05005 33.25 6.86005 33.22 6.68005C33.03 5.19005 33.6 4.07005 34.76 3.14005C35.64 2.43005 36.42 1.59005 37.23 0.790054C37.77 0.250054 38.4 5.38733e-05 39.17 0.0100539C41.47 0.0300539 43.78 0.0300539 46.08 0.0100539C46.88 5.38733e-05 47.53 0.270054 48.09 0.830054C48.99 1.73005 49.89 2.65005 50.86 3.48005C51.73 4.23005 52.15 5.11005 52.04 6.25005C52.01 6.57005 52.04 6.90005 52.04 7.26005C52.58 7.26005 53.02 7.26005 53.58 7.26005C53.58 6.57005 53.56 5.91005 53.58 5.26005C53.62 3.90005 54.43 3.10005 55.79 3.09005C57.57 3.07005 59.34 3.07005 61.12 3.09005C62.48 3.10005 63.28 3.88005 63.36 5.24005C63.37 5.38005 63.38 5.52005 63.37 5.66005C63.29 6.63005 63.3 7.41005 64.54 7.80005C65.5 8.10005 65.96 9.10005 65.96 10.1501C65.97 17.4801 65.98 24.8101 65.96 32.1401C65.96 33.7901 64.71 34.9401 62.98 34.9601C60.59 34.9801 58.21 34.9801 55.82 34.9601C55.26 34.9501 55.02 35.0801 54.88 35.6801C54.42 37.6501 52.82 38.9801 50.78 39.1201C49.63 39.2001 48.47 39.1301 47.21 39.1301C47.21 41.0701 47.2 42.8701 47.23 44.6601C47.23 44.8201 47.49 45.0501 47.67 45.1301C49.05 45.6801 49.69 46.7001 49.68 48.1601C49.67 49.4001 49.68 50.6401 49.68 52.0001C50.38 52.0001 50.98 52.0101 51.58 52.0001C52.52 51.9701 53.31 52.2601 53.94 53.0001C54.09 53.1801 54.4 53.3201 54.63 53.3201C61.18 53.3401 67.73 53.3301 74.28 53.3301C74.39 53.3301 74.49 53.3001 74.64 53.2801C74.67 53.1101 74.71 52.9601 74.74 52.8001C74.96 51.3101 76.07 50.2801 77.56 50.2501C79.17 50.2201 80.78 50.2301 82.39 50.2501C83.86 50.2701 84.66 51.2101 85.25 52.4101C85.29 58.6601 85.29 64.9301 85.29 71.2101ZM10.58 63.2101C10.99 63.2101 11.32 63.2101 11.65 63.2101C27.86 63.2101 44.07 63.2101 60.29 63.2101C60.54 63.2101 60.79 63.2001 61.04 63.2101C61.87 63.2501 62.4 63.7501 62.38 64.4801C62.36 65.1801 61.86 65.66 61.07 65.7001C60.82 65.7101 60.57 65.7001 60.32 65.7001C44.11 65.7001 27.9 65.7001 11.68 65.7001C11.33 65.7001 10.98 65.7001 10.61 65.7001C10.61 66.48 10.61 67.1501 10.61 67.8201C32.01 67.8201 53.35 67.8201 74.7 67.8201C74.7 67.09 74.7 66.4201 74.7 65.7001C72.17 65.7001 69.7 65.7101 67.23 65.7001C66.31 65.7001 65.77 65.2401 65.75 64.4801C65.73 63.6901 66.28 63.2101 67.25 63.2001C69.44 63.1901 71.64 63.2001 73.83 63.2001C74.12 63.2001 74.41 63.2001 74.7 63.2001C74.7 62.2301 74.7 61.3901 74.7 60.5501C74.56 60.5101 74.48 60.4801 74.4 60.4701C67.24 60.4601 60.08 60.4601 52.91 60.4701C52.7 60.4701 52.41 60.5901 52.28 60.7501C51.66 61.5001 50.86 61.7801 49.93 61.7801C45.07 61.7801 40.21 61.8001 35.36 61.7501C34.74 61.7401 33.91 61.5701 33.54 61.1601C32.87 60.4101 32.13 60.4401 31.3 60.4401C29.38 60.4501 27.47 60.4601 25.55 60.4301C24.61 60.4201 24.1 59.9401 24.1 59.1801C24.1 58.4101 24.61 57.9701 25.55 57.9501C26.3 57.9401 27.05 57.9501 27.8 57.9501C29.12 57.9501 30.44 57.9501 31.86 57.9501C31.7 57.4701 31.54 57.1101 31.47 56.7501C31.31 55.9501 30.85 55.7701 30.06 55.7701C23.9 55.8001 17.73 55.7901 11.57 55.7901C11.25 55.7901 10.93 55.8201 10.61 55.8401C10.61 56.5801 10.61 57.2301 10.61 57.9501C13.25 57.9501 15.83 57.9501 18.4 57.9501C18.84 57.9501 19.29 57.9301 19.73 57.9901C20.37 58.0801 20.7 58.5101 20.72 59.1401C20.74 59.7701 20.43 60.2101 19.81 60.3601C19.49 60.4301 19.15 60.4401 18.82 60.4401C16.38 60.4501 13.93 60.4401 11.49 60.4501C11.2 60.4501 10.91 60.4801 10.58 60.5001C10.58 61.4401 10.58 62.2701 10.58 63.2101ZM54.14 9.80005C54.38 10.1301 54.51 10.3101 54.64 10.4801C56.07 12.3301 57.06 14.3901 57.5 16.6901C57.69 17.6901 57.06 18.4001 56.14 18.2701C55.35 18.1601 55.15 17.5701 55 16.9201C53.33 10.0501 46.72 5.90005 39.83 7.40005C33.22 8.84005 28.87 15.5201 30.19 22.2301C31.51 28.9601 38.13 33.5401 44.81 32.2601C50.07 31.2501 53.4 28.0401 54.93 22.9301C55.24 21.9101 55.77 21.5001 56.56 21.7101C57.32 21.9101 57.6 22.5801 57.33 23.6001C56.45 26.9301 54.64 29.6501 51.94 31.7901C51.74 31.9501 51.54 32.1201 51.23 32.3701C51.47 32.4101 51.57 32.4401 51.67 32.4401C55.36 32.4401 59.05 32.4401 62.75 32.4501C63.35 32.4501 63.5 32.1901 63.5 31.6401C63.48 29.0601 63.49 26.4801 63.49 23.9001C63.49 19.5101 63.49 15.1301 63.49 10.7401C63.49 10.3001 63.57 9.80005 62.89 9.80005C60.03 9.80005 57.18 9.80005 54.14 9.80005ZM2.49999 61.8801C2.49999 64.6301 2.50999 67.3701 2.48999 70.1201C2.47999 70.7301 2.68999 70.9801 3.29999 70.9701C4.59999 70.9501 5.90999 70.9501 7.20999 70.9701C7.80999 70.9801 8.03999 70.7701 8.03999 70.1501C8.01999 64.6001 8.01999 59.0501 8.03999 53.5001C8.03999 52.8701 7.78999 52.6901 7.18999 52.7001C5.96999 52.7301 4.74999 52.7501 3.52999 52.6901C2.73999 52.6501 2.45999 52.8901 2.47999 53.7201C2.52999 56.4401 2.49999 59.1601 2.49999 61.8801ZM77.26 61.8801C77.26 64.6301 77.27 67.3701 77.25 70.1201C77.25 70.7201 77.43 70.9801 78.05 70.9701C79.35 70.9401 80.66 70.9501 81.96 70.9701C82.55 70.9801 82.8 70.7801 82.8 70.1501C82.78 64.6001 82.78 59.0501 82.8 53.5001C82.8 52.8601 82.54 52.6901 81.95 52.7001C80.7 52.7301 79.45 52.7401 78.2 52.7001C77.48 52.6701 77.23 52.9001 77.24 53.6401C77.28 56.3901 77.26 59.1301 77.26 61.8801ZM51.99 54.5501C45.71 54.5501 39.55 54.5501 33.31 54.5501C33.85 56.0401 34.34 57.4501 34.88 58.8401C34.96 59.0501 35.31 59.2901 35.53 59.2901C40.27 59.3201 45.02 59.3201 49.76 59.2901C49.98 59.2901 50.33 59.0501 50.41 58.8401C50.96 57.4501 51.45 56.0401 51.99 54.5501ZM21.89 30.7201C21.68 32.4501 21.68 32.4501 23.28 32.4501C26.55 32.4501 29.83 32.4501 33.1 32.4501C33.39 32.4501 33.67 32.4501 34.21 32.4501C30.41 29.6501 28.17 26.1801 27.6 21.7401C27.02 17.3101 28.28 13.3801 31.17 9.80005C28.12 9.80005 25.27 9.79005 22.42 9.83005C22.22 9.83005 21.91 10.1801 21.84 10.4201C21.74 10.7601 21.81 11.1601 21.81 11.5701C22.47 11.5701 22.99 11.5701 23.51 11.5701C25.32 11.5801 26.21 12.4501 26.23 14.2701C26.25 15.9301 26.23 17.6001 26.23 19.2601C26.23 22.1701 26.24 25.0901 26.22 28.0001C26.21 29.8101 25.29 30.7001 23.5 30.7201C22.99 30.7301 22.46 30.7201 21.89 30.7201ZM74.66 57.9401C74.66 57.1801 74.66 56.5201 74.66 55.8201C67.93 55.8201 61.3 55.8201 54.67 55.8301C54.49 55.8301 54.2 55.9501 54.14 56.0901C53.88 56.6801 53.69 57.3001 53.46 57.9501C60.6 57.9401 67.62 57.9401 74.66 57.9401ZM38.09 51.9201C41.19 51.9201 44.16 51.9201 47.21 51.9201C47.21 50.59 47.23 49.3201 47.18 48.0501C47.17 47.8601 46.83 47.5201 46.64 47.5201C43.98 47.4801 41.32 47.4801 38.67 47.5201C38.48 47.5201 38.13 47.8501 38.12 48.0401C38.07 49.3001 38.09 50.5701 38.09 51.9201ZM52.48 35.0201C45.89 35.0201 39.38 35.0201 32.84 35.0201C33.24 36.2501 33.85 36.6501 35.35 36.6501C40.2 36.6601 45.06 36.6501 49.91 36.6501C50.27 36.6501 50.64 36.6401 50.98 36.5501C51.76 36.3601 52.27 35.8701 52.48 35.0201ZM21.87 14.1101C21.87 18.8501 21.87 23.5101 21.87 28.1801C22.5 28.1801 23.07 28.1801 23.69 28.1801C23.69 23.4701 23.69 18.8101 23.69 14.1101C23.07 14.1101 22.5 14.1101 21.87 14.1101ZM35.71 6.28005C38.03 5.15005 40.28 4.61005 42.64 4.60005C45.02 4.59005 47.28 5.18005 49.54 6.09005C49.39 5.68005 49.14 5.37005 48.9 5.06005C47.36 3.05005 45.44 2.06005 42.82 2.48005C41.6 2.68005 40.2 2.21005 39.12 2.65005C38.02 3.10005 37.22 4.30005 36.29 5.17005C36.15 5.30005 35.98 5.42005 35.88 5.58005C35.8 5.72005 35.8 5.92005 35.71 6.28005ZM44.68 44.9801C44.68 42.9901 44.68 41.1301 44.68 39.2301C43.29 39.2301 41.96 39.2301 40.57 39.2301C40.57 41.0201 40.55 42.7301 40.59 44.4401C40.59 44.6201 40.91 44.9501 41.1 44.9601C42.26 45.0001 43.42 44.9801 44.68 44.9801ZM60.82 7.25005C60.82 6.64005 60.82 6.13005 60.82 5.63005C59.21 5.63005 57.67 5.63005 56.16 5.63005C56.16 6.20005 56.16 6.72005 56.16 7.25005C57.74 7.25005 59.25 7.25005 60.82 7.25005Z" fill="#445EF2"/>
<path d="M42.7 9.37002C48.45 9.40002 53.14 14.13 53.09 19.85C53.04 25.63 48.3 30.28 42.51 30.23C36.85 30.19 32.16 25.41 32.2 19.74C32.24 13.99 36.95 9.34002 42.7 9.37002ZM42.64 27.73C47.01 27.73 50.6 24.14 50.59 19.78C50.58 15.44 47.05 11.9 42.7 11.87C38.31 11.84 34.73 15.38 34.7 19.76C34.68 24.1 38.28 27.72 42.64 27.73Z" fill="#445EF2"/>
<path d="M60.35 11.75C61.04 11.77 61.58 12.37 61.53 13.07C61.49 13.74 60.92 14.25 60.27 14.23C59.58 14.21 59.04 13.61 59.09 12.91C59.12 12.24 59.69 11.72 60.35 11.75Z" fill="#445EF2"/>
<path d="M42.68 24.59C40.02 24.6 37.85 22.47 37.83 19.83C37.81 17.19 39.96 15.01 42.61 14.98C45.25 14.95 47.44 17.11 47.46 19.76C47.49 22.4 45.33 24.57 42.68 24.59ZM44.96 19.79C44.96 18.55 43.94 17.51 42.69 17.49C41.41 17.46 40.33 18.52 40.33 19.79C40.33 21.03 41.36 22.07 42.6 22.09C43.9 22.1 44.96 21.06 44.96 19.79Z" fill="#445EF2"/>
</g>
<defs>
<clipPath id="clip0_189_336">
<rect width="85.29" height="73.49" fill="white"/>
</clipPath>
</defs>
</svg>
