<svg width="81" height="76" viewBox="0 0 81 76" fill="none" xmlns="http://www.w3.org/2000/svg">
<g clip-path="url(#clip0_187_228)">
<path d="M78.81 9.64989H63.85C62.96 9.64989 62.24 10.3699 62.24 11.2599C62.24 12.1499 62.96 12.8699 63.85 12.8699H77.2V20.9099H62.85C61.96 20.9099 61.24 21.6299 61.24 22.5199C61.24 23.4099 61.96 24.1299 62.85 24.1299H77.2V72.1999H3.22V24.1199H17.57C18.46 24.1199 19.18 23.3999 19.18 22.5099C19.18 21.6199 18.46 20.8999 17.57 20.8999H14.48V12.8599H16.57C17.46 12.8599 18.18 12.1399 18.18 11.2499C18.18 10.3599 17.46 9.63989 16.57 9.63989H1.61C0.72 9.64989 0 10.3699 0 11.2599V73.8099C0 74.6999 0.72 75.4199 1.61 75.4199H78.81C79.7 75.4199 80.42 74.6999 80.42 73.8099V11.2599C80.42 10.3699 79.7 9.64989 78.81 9.64989ZM11.26 12.8699V20.9099H3.22V12.8699H11.26Z" fill="#445EF2"/>
<path d="M58.7 17.79C58.7 17.79 59.5 1.74 59.5 1.69C59.55 0.78 58.8 0 57.9 0C57.9 0 22.53 0 22.52 0C21.65 0 20.88 0.75 20.91 1.69L21.71 17.79C22.13 25.99 27.81 32.68 35.36 34.73C35.31 37.8 34.44 40.78 32.87 43.43H25.73C24.85 43.43 24.12 44.15 24.12 45.04V51.47C24.12 52.35 24.84 53.08 25.73 53.08H54.68C55.56 53.08 56.29 52.36 56.29 51.47V45.04C56.29 44.16 55.57 43.43 54.68 43.43H47.54C45.96 40.78 45.1 37.8 45.05 34.73C52.61 32.68 58.29 25.99 58.7 17.79ZM53.07 46.64V49.86H27.34V46.64H53.07ZM36.54 43.42C37.76 40.88 38.42 38.13 38.55 35.3C39.1 35.35 39.64 35.38 40.21 35.38C40.77 35.38 41.32 35.35 41.87 35.3C42 38.13 42.66 40.88 43.88 43.42H36.54ZM40.21 32.17C32.06 32.17 25.33 25.78 24.93 17.63L24.21 3.22H56.22L55.5 17.63C55.08 25.78 48.36 32.17 40.21 32.17Z" fill="#445EF2"/>
<path d="M49.57 13.55C49.38 12.96 48.87 12.53 48.26 12.45L43.68 11.8L41.64 7.77997C41.09 6.69997 39.32 6.69997 38.77 7.77997L36.73 11.8C36.73 11.8 32.17 12.45 32.15 12.45C30.84 12.63 30.31 14.3 31.27 15.21L34.56 18.32C34.56 18.32 33.79 22.7 33.79 22.71C33.57 23.95 34.91 25.03 36.11 24.42L40.22 22.32L44.33 24.42C45.48 25.01 46.87 23.99 46.64 22.71L45.87 18.32L49.16 15.21C49.59 14.78 49.76 14.14 49.57 13.55ZM43.02 16.58C42.63 16.95 42.45 17.49 42.54 18.03L42.9 20.09L40.94 19.09C40.71 18.97 40.46 18.91 40.21 18.91C39.96 18.91 39.71 18.97 39.48 19.09L37.52 20.09L37.88 18.03C37.97 17.5 37.8 16.95 37.4 16.58L35.91 15.16L38.02 14.86C38.54 14.79 38.99 14.46 39.23 14L40.21 12.06L41.19 14C41.43 14.47 41.88 14.79 42.4 14.86L44.51 15.16L43.02 16.58Z" fill="#445EF2"/>
<path d="M8.04 40.21H27.34C28.23 40.21 28.95 39.49 28.95 38.6C28.95 37.71 28.23 36.99 27.34 36.99H8.04C7.15 36.99 6.43 37.71 6.43 38.6C6.43 39.49 7.15 40.21 8.04 40.21Z" fill="#445EF2"/>
<path d="M6.43 32.1701C6.43 33.0601 7.15 33.7801 8.04 33.7801H19.3C20.19 33.7801 20.91 33.0601 20.91 32.1701C20.91 31.2801 20.19 30.5601 19.3 30.5601H8.04C7.15 30.5601 6.43 31.2801 6.43 32.1701Z" fill="#445EF2"/>
<path d="M8.04 49.6399H19.3C20.19 49.6399 20.91 48.9199 20.91 48.0299C20.91 47.1399 20.19 46.4199 19.3 46.4199H8.04C7.15 46.4199 6.43 47.1399 6.43 48.0299C6.43 48.9199 7.15 49.6399 8.04 49.6399Z" fill="#445EF2"/>
<path d="M8.04 56.0701H19.3C20.19 56.0701 20.91 55.3501 20.91 54.4601C20.91 53.5701 20.19 52.8501 19.3 52.8501H8.04C7.15 52.8501 6.43 53.5701 6.43 54.4601C6.43 55.3501 7.15 56.0701 8.04 56.0701Z" fill="#445EF2"/>
<path d="M72.37 36.99H53.07C52.18 36.99 51.46 37.71 51.46 38.6C51.46 39.49 52.18 40.21 53.07 40.21H72.37C73.26 40.21 73.98 39.49 73.98 38.6C73.98 37.71 73.26 36.99 72.37 36.99Z" fill="#445EF2"/>
<path d="M61.12 33.7701H72.38C73.27 33.7701 73.99 33.05 73.99 32.16C73.99 31.27 73.27 30.55 72.38 30.55H61.12C60.23 30.55 59.51 31.27 59.51 32.16C59.51 33.05 60.23 33.7701 61.12 33.7701Z" fill="#445EF2"/>
<path d="M72.37 46.4199H61.12C60.23 46.4199 59.51 47.1399 59.51 48.0299C59.51 48.9199 60.23 49.6399 61.12 49.6399H72.38C73.27 49.6399 73.99 48.9199 73.99 48.0299C73.98 47.1399 73.26 46.4199 72.37 46.4199Z" fill="#445EF2"/>
<path d="M72.37 52.8601H61.12C60.23 52.8601 59.51 53.5801 59.51 54.4701C59.51 55.3601 60.23 56.0801 61.12 56.0801H72.38C73.27 56.0801 73.99 55.3601 73.99 54.4701C73.98 53.5801 73.26 52.8601 72.37 52.8601Z" fill="#445EF2"/>
<path d="M19.62 66.22C19.62 65.55 20.16 65.01 20.83 65.01C21.5 65.01 22.04 65.55 22.04 66.22C22.04 66.89 21.5 67.43 20.83 67.43C20.16 67.43 19.62 66.89 19.62 66.22Z" fill="#445EF2"/>
<path d="M32.48 60.9901L30.1 61.4201C30.02 60.9401 29.84 60.5901 29.55 60.3401C29.27 60.1001 28.9 59.9801 28.44 59.9801C27.84 59.9801 27.36 60.1901 27 60.6001C26.64 61.0101 26.46 61.7101 26.46 62.6901C26.46 63.7701 26.64 64.5401 27.01 64.9901C27.37 65.4401 27.86 65.6601 28.48 65.6601C28.94 65.6601 29.31 65.5301 29.61 65.2701C29.91 65.0101 30.11 64.5601 30.23 63.9201L32.61 64.3201C32.36 65.4101 31.89 66.2301 31.19 66.7901C30.49 67.3501 29.55 67.6201 28.38 67.6201C27.04 67.6201 25.98 67.2001 25.18 66.3601C24.39 65.5201 23.99 64.3501 23.99 62.8601C23.99 61.3501 24.39 60.1801 25.19 59.3401C25.99 58.5001 27.07 58.0801 28.43 58.0801C29.54 58.0801 30.43 58.3201 31.08 58.8001C31.72 59.2801 32.2 60.0101 32.48 60.9901Z" fill="#445EF2"/>
<path d="M33.76 62.7301C33.76 61.9301 33.96 61.1501 34.35 60.4001C34.75 59.6501 35.31 59.0701 36.03 58.6801C36.75 58.2901 37.57 58.0901 38.46 58.0901C39.84 58.0901 40.98 58.5401 41.86 59.4401C42.74 60.3401 43.19 61.4701 43.19 62.8401C43.19 64.2201 42.74 65.3701 41.85 66.2801C40.96 67.1901 39.83 67.6401 38.48 67.6401C37.64 67.6401 36.84 67.4501 36.08 67.0701C35.32 66.6901 34.74 66.1401 34.35 65.4001C33.96 64.6601 33.76 63.7801 33.76 62.7301ZM36.23 62.8601C36.23 63.7701 36.45 64.4601 36.88 64.9401C37.31 65.4201 37.84 65.6601 38.47 65.6601C39.1 65.6601 39.63 65.4201 40.06 64.9401C40.49 64.4601 40.7 63.7601 40.7 62.8401C40.7 61.9401 40.49 61.2601 40.06 60.7701C39.63 60.2901 39.1 60.0501 38.47 60.0501C37.84 60.0501 37.31 60.2901 36.88 60.7701C36.45 61.2601 36.23 61.9501 36.23 62.8601Z" fill="#445EF2"/>
<path d="M44.9 58.2901H47.13V59.5401C47.93 58.5701 48.88 58.0901 49.98 58.0901C50.56 58.0901 51.07 58.2101 51.5 58.4501C51.93 58.6901 52.28 59.0601 52.56 59.5401C52.96 59.0501 53.39 58.6901 53.86 58.4501C54.32 58.2101 54.82 58.0901 55.35 58.0901C56.02 58.0901 56.59 58.2301 57.05 58.5001C57.51 58.7701 57.86 59.1701 58.09 59.7001C58.26 60.0901 58.34 60.7201 58.34 61.5901V67.4301H55.92V62.2101C55.92 61.3001 55.84 60.7201 55.67 60.4501C55.45 60.1101 55.1 59.9301 54.64 59.9301C54.3 59.9301 53.98 60.0301 53.68 60.2401C53.38 60.4501 53.17 60.7501 53.03 61.1501C52.9 61.5501 52.83 62.1801 52.83 63.0401V67.4301H50.41V62.4201C50.41 61.5301 50.37 60.9601 50.28 60.7001C50.19 60.4401 50.06 60.2501 49.88 60.1201C49.7 59.9901 49.45 59.9301 49.14 59.9301C48.77 59.9301 48.43 60.0301 48.13 60.2301C47.83 60.4301 47.62 60.7201 47.49 61.1001C47.36 61.4801 47.3 62.1101 47.3 62.9801V67.4201H44.9V58.2901Z" fill="#445EF2"/>
</g>
<defs>
<clipPath id="clip0_187_228">
<rect width="80.42" height="75.42" fill="white"/>
</clipPath>
</defs>
</svg>
