<svg width="86" height="86" viewBox="0 0 86 86" fill="none" xmlns="http://www.w3.org/2000/svg">
<g clip-path="url(#clip0_189_291)">
<path d="M72.67 85.14C72 84.67 71.81 84.03 71.82 83.21C71.86 80 71.83 76.79 71.84 73.58C71.84 72.28 72.28 71.84 73.58 71.84C76.79 71.84 80 71.86 83.21 71.82C84.02 71.81 84.67 71.99 85.14 72.67C85.14 76.83 85.14 80.98 85.14 85.14C80.99 85.14 76.83 85.14 72.67 85.14ZM74.56 74.54C74.56 77.22 74.56 79.83 74.56 82.42C77.23 82.42 79.84 82.42 82.44 82.42C82.44 79.76 82.44 77.17 82.44 74.54C79.8 74.54 77.21 74.54 74.56 74.54Z" fill="#445EF2"/>
<path d="M85.14 12.4899C84.67 13.1599 84.03 13.3499 83.21 13.3399C80 13.2999 76.79 13.3299 73.58 13.3199C72.28 13.3199 71.84 12.8799 71.84 11.5699C71.84 8.2999 71.84 5.0399 71.84 1.7699C71.84 0.469901 72.28 0.019901 73.58 0.019901C76.79 0.019901 80 0.039901 83.21 -9.90195e-05C84.02 -0.010099 84.67 0.169901 85.14 0.849901C85.14 4.7299 85.14 8.6099 85.14 12.4899ZM74.56 2.7099C74.56 5.3899 74.56 7.9999 74.56 10.5899C77.23 10.5899 79.84 10.5899 82.44 10.5899C82.44 7.9299 82.44 5.3399 82.44 2.7099C79.8 2.7099 77.21 2.7099 74.56 2.7099Z" fill="#445EF2"/>
<path d="M0.850023 85.1399C0.170023 84.6699 -0.00997695 84.0299 2.30508e-05 83.2199C0.0400231 80.0099 0.0100231 76.7999 0.020023 73.5899C0.020023 72.2899 0.460023 71.8499 1.77002 71.8499C5.04002 71.8499 8.30002 71.8499 11.57 71.8499C12.87 71.8499 13.32 72.2899 13.32 73.5899C13.32 76.7999 13.3 80.0099 13.34 83.2199C13.35 84.0299 13.17 84.6799 12.49 85.1499C8.61002 85.1399 4.73002 85.1399 0.850023 85.1399ZM2.73002 74.5399C2.73002 77.2099 2.73002 79.8199 2.73002 82.4199C5.40002 82.4199 8.01002 82.4199 10.61 82.4199C10.61 79.7599 10.61 77.1699 10.61 74.5399C7.98002 74.5399 5.39002 74.5399 2.73002 74.5399Z" fill="#445EF2"/>
<path d="M6.61001 13.32C4.98001 13.32 3.34001 13.32 1.71001 13.32C0.500012 13.32 0.0300122 12.86 0.0200122 11.68C0.0100122 8.32995 0.0100122 4.96995 0.0200122 1.61995C0.0200122 0.489951 0.510012 0.0199512 1.66001 0.0199512C5.01001 0.00995117 8.37001 0.00995117 11.72 0.0199512C12.85 0.0199512 13.32 0.509951 13.32 1.65995C13.33 5.00995 13.33 8.36995 13.32 11.72C13.32 12.85 12.83 13.32 11.68 13.32C9.99001 13.32 8.30001 13.32 6.61001 13.32ZM2.73001 2.68995C2.73001 5.37995 2.73001 7.98995 2.73001 10.6C5.39001 10.6 8.01001 10.6 10.59 10.6C10.59 7.92995 10.59 5.31995 10.59 2.68995C7.95001 2.68995 5.38001 2.68995 2.73001 2.68995Z" fill="#445EF2"/>
<path d="M61.1601 5.37988C61.1601 6.22988 61.1601 7.04988 61.1601 7.92988C59.4401 7.92988 57.7101 7.92988 55.9301 7.92988C55.9301 7.09988 55.9301 6.25988 55.9301 5.37988C57.6701 5.37988 59.4001 5.37988 61.1601 5.37988Z" fill="#445EF2"/>
<path d="M63.9 7.9499C63.9 7.0899 63.9 6.2799 63.9 5.3999C65.62 5.3999 67.35 5.3999 69.13 5.3999C69.13 6.2299 69.13 7.0699 69.13 7.9499C67.39 7.9499 65.66 7.9499 63.9 7.9499Z" fill="#445EF2"/>
<path d="M5.39001 16.01C6.27001 16.01 7.09001 16.01 7.95001 16.01C7.95001 17.75 7.95001 19.46 7.95001 21.23C7.13001 21.23 6.29001 21.23 5.39001 21.23C5.39001 19.53 5.39001 17.81 5.39001 16.01Z" fill="#445EF2"/>
<path d="M77.22 16.01C78.1 16.01 78.92 16.01 79.78 16.01C79.78 17.75 79.78 19.46 79.78 21.23C78.96 21.23 78.12 21.23 77.22 21.23C77.22 19.53 77.22 17.81 77.22 16.01Z" fill="#445EF2"/>
<path d="M5.40002 23.99C6.27002 23.99 7.09002 23.99 7.95002 23.99C7.95002 25.75 7.95002 27.47 7.95002 29.24C7.10002 29.24 6.28002 29.24 5.40002 29.24C5.40002 27.52 5.40002 25.79 5.40002 23.99Z" fill="#445EF2"/>
<path d="M79.78 24.01C79.78 25.75 79.78 27.45 79.78 29.22C78.95 29.22 78.11 29.22 77.21 29.22C77.21 27.51 77.21 25.78 77.21 24.01C78.05 24.01 78.87 24.01 79.78 24.01Z" fill="#445EF2"/>
<path d="M7.98002 31.99C7.98002 33.75 7.98002 35.43 7.98002 37.19C7.14002 37.19 6.30002 37.19 5.40002 37.19C5.40002 35.49 5.40002 33.77 5.40002 31.99C6.23002 31.99 7.07002 31.99 7.98002 31.99Z" fill="#445EF2"/>
<path d="M21.25 7.9599C19.51 7.9599 17.81 7.9599 16.04 7.9599C16.04 7.1299 16.04 6.2899 16.04 5.3999C17.75 5.3999 19.47 5.3999 21.25 5.3999C21.25 6.2399 21.25 7.0799 21.25 7.9599Z" fill="#445EF2"/>
<path d="M7.94 45.2C7.06 45.2 6.24 45.2 5.38 45.2C5.38 43.46 5.38 41.76 5.38 39.98C6.2 39.98 7.04 39.98 7.94 39.98C7.94 41.69 7.94 43.41 7.94 45.2Z" fill="#445EF2"/>
<path d="M79.76 45.2C78.88 45.2 78.06 45.2 77.2 45.2C77.2 43.46 77.2 41.76 77.2 39.98C78.02 39.98 78.86 39.98 79.76 39.98C79.76 41.69 79.76 43.41 79.76 45.2Z" fill="#445EF2"/>
<path d="M5.38 47.9399C6.24 47.9399 7.06 47.9399 7.94 47.9399C7.94 49.6699 7.94 51.3899 7.94 53.1699C7.1 53.1699 6.26 53.1699 5.38 53.1699C5.38 51.4399 5.38 49.7399 5.38 47.9399Z" fill="#445EF2"/>
<path d="M77.2 53.18C77.2 51.43 77.2 49.72 77.2 47.96C78.05 47.96 78.89 47.96 79.78 47.96C79.78 49.69 79.78 51.41 79.78 53.18C78.93 53.18 78.11 53.18 77.2 53.18Z" fill="#445EF2"/>
<path d="M79.81 32.01C79.81 33.76 79.81 35.45 79.81 37.2C78.96 37.2 78.12 37.2 77.22 37.2C77.22 35.49 77.22 33.77 77.22 32.01C78.08 32.01 78.94 32.01 79.81 32.01Z" fill="#445EF2"/>
<path d="M7.94 61.1599C7.06 61.1599 6.24 61.1599 5.38 61.1599C5.38 59.4199 5.38 57.7099 5.38 55.9399C6.21 55.9399 7.05 55.9399 7.94 55.9399C7.94 57.6499 7.94 59.3799 7.94 61.1599Z" fill="#445EF2"/>
<path d="M79.76 61.1699C78.89 61.1699 78.07 61.1699 77.2 61.1699C77.2 59.4299 77.2 57.73 77.2 55.95C78.02 55.95 78.85 55.95 79.76 55.95C79.76 57.65 79.76 59.3699 79.76 61.1699Z" fill="#445EF2"/>
<path d="M7.96 63.8999C7.96 65.6599 7.96 67.3699 7.96 69.1299C7.1 69.1299 6.26 69.1299 5.38 69.1299C5.38 67.3899 5.38 65.6699 5.38 63.8999C6.24 63.8999 7.05 63.8999 7.96 63.8999Z" fill="#445EF2"/>
<path d="M79.77 69.1399C78.89 69.1399 78.07 69.1399 77.21 69.1399C77.21 67.3999 77.21 65.6899 77.21 63.9199C78.03 63.9199 78.87 63.9199 79.77 63.9199C79.77 65.6299 79.77 67.3499 79.77 69.1399Z" fill="#445EF2"/>
<path d="M29.24 5.38989C29.24 6.26989 29.24 7.08989 29.24 7.94989C27.5 7.94989 25.79 7.94989 24.02 7.94989C24.02 7.11989 24.02 6.28989 24.02 5.38989C25.73 5.38989 27.45 5.38989 29.24 5.38989Z" fill="#445EF2"/>
<path d="M37.2 7.9599C35.43 7.9599 33.73 7.9599 31.98 7.9599C31.98 7.1099 31.98 6.2899 31.98 5.3999C33.69 5.3999 35.42 5.3999 37.2 5.3999C37.2 6.2199 37.2 7.0599 37.2 7.9599Z" fill="#445EF2"/>
<path d="M45.18 7.96988C43.43 7.96988 41.73 7.96988 39.97 7.96988C39.97 7.09988 39.97 6.25988 39.97 5.37988C41.7 5.37988 43.41 5.37988 45.18 5.37988C45.18 6.19988 45.18 7.03988 45.18 7.96988Z" fill="#445EF2"/>
<path d="M53.18 5.38989C53.18 6.26989 53.18 7.08989 53.18 7.94989C51.44 7.94989 49.73 7.94989 47.96 7.94989C47.96 7.12989 47.96 6.28989 47.96 5.38989C49.67 5.38989 51.39 5.38989 53.18 5.38989Z" fill="#445EF2"/>
<path d="M15.9901 79.77C15.9901 78.89 15.9901 78.09 15.9901 77.23C17.7301 77.23 19.4501 77.23 21.2401 77.23C21.2401 78.05 21.2401 78.88 21.2401 79.77C19.5101 79.77 17.7901 79.77 15.9901 79.77Z" fill="#445EF2"/>
<path d="M23.9901 79.76C23.9901 78.91 23.9901 78.09 23.9901 77.22C25.7401 77.22 27.4701 77.22 29.2301 77.22C29.2301 78.06 29.2301 78.88 29.2301 79.76C27.5301 79.76 25.8001 79.76 23.9901 79.76Z" fill="#445EF2"/>
<path d="M31.98 79.78C31.98 78.92 31.98 78.11 31.98 77.23C33.7 77.23 35.43 77.23 37.21 77.23C37.21 78.06 37.21 78.9 37.21 79.78C35.47 79.78 33.74 79.78 31.98 79.78Z" fill="#445EF2"/>
<path d="M39.98 77.2C41.75 77.2 43.45 77.2 45.2 77.2C45.2 78.06 45.2 78.87 45.2 79.76C43.49 79.76 41.76 79.76 39.98 79.76C39.98 78.94 39.98 78.1 39.98 77.2Z" fill="#445EF2"/>
<path d="M53.16 79.79C51.4 79.79 49.7 79.79 47.95 79.79C47.95 78.94 47.95 78.12 47.95 77.23C49.65 77.23 51.38 77.23 53.16 77.23C53.16 78.04 53.16 78.88 53.16 79.79Z" fill="#445EF2"/>
<path d="M61.17 77.23C61.17 78.09 61.17 78.91 61.17 79.78C59.41 79.78 57.69 79.78 55.92 79.78C55.92 78.93 55.92 78.11 55.92 77.23C57.64 77.23 59.36 77.23 61.17 77.23Z" fill="#445EF2"/>
<path d="M69.1501 77.22C69.1501 78.09 69.1501 78.91 69.1501 79.78C67.4101 79.78 65.7101 79.78 63.9301 79.78C63.9301 78.96 63.9301 78.12 63.9301 77.22C65.6301 77.22 67.3501 77.22 69.1501 77.22Z" fill="#445EF2"/>
<path d="M61.97 19.54H23.17C21.17 19.54 19.53 21.18 19.53 23.18V51.06C19.53 53.06 21.17 54.7 23.17 54.7H34.47L35.95 58.4C34.22 58.67 32.87 60.16 32.87 61.98V64.4C32.87 65.07 33.42 65.61 34.08 65.61H51.05C51.72 65.61 52.26 65.06 52.26 64.4V61.98C52.26 60.16 50.91 58.67 49.18 58.4L50.66 54.7H61.96C63.96 54.7 65.6 53.06 65.6 51.06V23.17C65.61 21.17 63.97 19.54 61.97 19.54ZM49.85 61.97V63.18H35.3V61.97C35.3 61.3 35.85 60.76 36.51 60.76H48.63C49.3 60.76 49.85 61.3 49.85 61.97ZM37.09 54.7H48.05L46.6 58.34H38.55L37.09 54.7ZM63.18 51.06C63.18 51.73 62.63 52.27 61.97 52.27H23.17C22.5 52.27 21.96 51.72 21.96 51.06V45H63.18V51.06ZM63.18 42.57H21.96V23.17C21.96 22.5 22.51 21.96 23.17 21.96H61.96C62.63 21.96 63.17 22.51 63.17 23.17V42.57H63.18Z" fill="#445EF2"/>
<path d="M40.15 49.8499H45C45.67 49.8499 46.21 49.3099 46.21 48.6399C46.21 47.9699 45.67 47.4299 45 47.4299H40.15C39.48 47.4299 38.94 47.9699 38.94 48.6399C38.94 49.3099 39.48 49.8499 40.15 49.8499Z" fill="#445EF2"/>
<path d="M49.85 49.8399C50.5183 49.8399 51.06 49.2982 51.06 48.6299C51.06 47.9617 50.5183 47.4199 49.85 47.4199C49.1817 47.4199 48.64 47.9617 48.64 48.6299C48.64 49.2982 49.1817 49.8399 49.85 49.8399Z" fill="#445EF2"/>
<path d="M35.3 49.8399C35.9683 49.8399 36.51 49.2982 36.51 48.6299C36.51 47.9617 35.9683 47.4199 35.3 47.4199C34.6318 47.4199 34.09 47.9617 34.09 48.6299C34.09 49.2982 34.6318 49.8399 35.3 49.8399Z" fill="#445EF2"/>
<path d="M38.93 24.3901H26.81C25.48 24.3901 24.39 25.4801 24.39 26.8101V32.8701C24.39 34.2001 25.48 35.2901 26.81 35.2901H38.93C40.26 35.2901 41.35 34.2001 41.35 32.8701V26.8101C41.36 25.4801 40.27 24.3901 38.93 24.3901ZM38.93 32.8701H26.81V26.8101H38.93V32.8701Z" fill="#445EF2"/>
<path d="M58.33 24.3901H46.21C44.88 24.3901 43.79 25.4801 43.79 26.8101V32.8701C43.79 34.2001 44.88 35.2901 46.21 35.2901H58.33C59.66 35.2901 60.75 34.2001 60.75 32.8701V26.8101C60.76 25.4801 59.67 24.3901 58.33 24.3901ZM58.33 32.8701H46.21V26.8101H58.33V32.8701Z" fill="#445EF2"/>
<path d="M38.93 37.72H26.81C26.14 37.72 25.6 38.26 25.6 38.93C25.6 39.6 26.14 40.14 26.81 40.14H38.93C39.6 40.14 40.14 39.6 40.14 38.93C40.14 38.26 39.6 37.72 38.93 37.72Z" fill="#445EF2"/>
<path d="M58.33 37.72H46.21C45.54 37.72 45 38.26 45 38.93C45 39.6 45.54 40.14 46.21 40.14H58.33C59 40.14 59.54 39.6 59.54 38.93C59.54 38.26 59 37.72 58.33 37.72Z" fill="#445EF2"/>
</g>
<defs>
<clipPath id="clip0_189_291">
<rect width="85.14" height="85.14" fill="white"/>
</clipPath>
</defs>
</svg>
